# xmcd
#
# Track frame offsets: 
#        150
#        12160
#        24300
#        39127
#        56902
#        73168
#        85977
#        96099
#        96551
#        97003
#        97455
#        97907
#
# Disc length: 1490 seconds
#
# Revision: 0
# Processed by: cddbd v1.5.2PL0 Copyright (c) Steve Scherf et al.
# Submitted via: ExactAudioCopy v0.99pb4
#
DISCID=9c05d00c
DTITLE=Vince Mira - Cash Cabin Sessions (EP)
DYEAR=2008
DGENRE=
TTITLE0=Cold Hearted Woman
TTITLE1=Blistered
TTITLE2=Lonely Heart
TTITLE3=Closer
TTITLE4=I Was The Train
TTITLE5=Ring Of Fire
TTITLE6=I Walk The ALine (Spanish)
TTITLE7=Hidden Track
TTITLE8=Hidden Track
TTITLE9=Hidden Track
TTITLE10=Hidden Track
TTITLE11=Ring Of Fire (Spanish)
EXTD=
EXTT0=
EXTT1=
EXTT2=
EXTT3=
EXTT4=
EXTT5=
EXTT6=
EXTT7=
EXTT8=
EXTT9=
EXTT10=
EXTT11=
PLAYORDER=
